{
	"asset":{
		"generator":"Khronos glTF Blender I/O v4.0.43",
		"version":"2.0"
	},
	"scene":0,
	"scenes":[
		{
			"name":"Scene",
			"nodes":[
				0,
				1
			]
		}
	],
	"nodes":[
		{
			"mesh":0,
			"name":"flowerpot1",
			"rotation":[
				-0.2176065593957901,
				0.08797261863946915,
				0.22149528563022614,
				0.9464925527572632
			],
			"translation":[
				7.398144721984863,
				0.5906820297241211,
				-0.2260596752166748
			]
		},
		{
			"mesh":1,
			"name":"flowerpot2",
			"rotation":[
				-0.6330822706222534,
				0.22913706302642822,
				-0.5675515532493591,
				0.47390761971473694
			],
			"scale":[
				0.758730947971344,
				0.8455774784088135,
				0.30675777792930603
			],
			"translation":[
				7.964902400970459,
				2.12785005569458,
				3.0313942432403564
			]
		}
	],
	"materials":[
		{
			"doubleSided":true,
			"name":"sand",
			"pbrMetallicRoughness":{
				"baseColorFactor":[
					0.14457032084465027,
					0.0791512057185173,
					0.030703241005539894,
					1
				],
				"metallicFactor":0,
				"roughnessFactor":0.5
			}
		},
		{
			"doubleSided":true,
			"name":"leafback",
			"normalTexture":{
				"index":0
			},
			"pbrMetallicRoughness":{
				"baseColorTexture":{
					"index":1
				},
				"metallicFactor":0,
				"metallicRoughnessTexture":{
					"index":2
				}
			}
		},
		{
			"doubleSided":true,
			"name":"ceramic",
			"pbrMetallicRoughness":{
				"baseColorFactor":[
					0.800000011920929,
					0.800000011920929,
					0.800000011920929,
					1
				],
				"roughnessFactor":0.6788990497589111
			}
		}
	],
	"meshes":[
		{
			"name":"Cube.001",
			"primitives":[
				{
					"attributes":{
						"POSITION":0,
						"NORMAL":1,
						"TEXCOORD_0":2
					},
					"indices":3,
					"material":0
				},
				{
					"attributes":{
						"POSITION":4,
						"NORMAL":5,
						"TEXCOORD_0":6
					},
					"indices":7,
					"material":1
				},
				{
					"attributes":{
						"POSITION":8,
						"NORMAL":9,
						"TEXCOORD_0":10
					},
					"indices":11,
					"material":2
				}
			]
		},
		{
			"name":"Plane.001",
			"primitives":[
				{
					"attributes":{
						"POSITION":12,
						"NORMAL":13,
						"TEXCOORD_0":14
					},
					"indices":15,
					"material":1
				},
				{
					"attributes":{
						"POSITION":16,
						"NORMAL":17,
						"TEXCOORD_0":18
					},
					"indices":19,
					"material":2
				},
				{
					"attributes":{
						"POSITION":20,
						"NORMAL":21,
						"TEXCOORD_0":22
					},
					"indices":23,
					"material":0
				}
			]
		}
	],
	"textures":[
		{
			"sampler":0,
			"source":0
		},
		{
			"sampler":0,
			"source":1
		},
		{
			"sampler":0,
			"source":2
		}
	],
	"images":[
		{
			"mimeType":"image/png",
			"name":"GreenLeaf10_2K_back_Normal",
			"uri":"GreenLeaf10_2K_back_Normal.png"
		},
		{
			"mimeType":"image/png",
			"name":"GreenLeaf10_2K_back_BaseColor",
			"uri":"GreenLeaf10_2K_back_BaseColor.png"
		},
		{
			"mimeType":"image/png",
			"name":"GreenLeaf10_2K_back_NormRough",
			"uri":"GreenLeaf10_2K_back_NormRough.png"
		}
	],
	"accessors":[
		{
			"bufferView":0,
			"componentType":5126,
			"count":697,
			"max":[
				0.8422744274139404,
				1.2860907316207886,
				0.7855803370475769
			],
			"min":[
				-0.6235998868942261,
				0.29335731267929077,
				-0.6802937984466553
			],
			"type":"VEC3"
		},
		{
			"bufferView":1,
			"componentType":5126,
			"count":697,
			"type":"VEC3"
		},
		{
			"bufferView":2,
			"componentType":5126,
			"count":697,
			"type":"VEC2"
		},
		{
			"bufferView":3,
			"componentType":5123,
			"count":3840,
			"type":"SCALAR"
		},
		{
			"bufferView":4,
			"componentType":5126,
			"count":18432,
			"max":[
				1.1260862350463867,
				2.226030111312866,
				1.0839440822601318
			],
			"min":[
				-0.7726479768753052,
				1.0002998113632202,
				-0.9283543825149536
			],
			"type":"VEC3"
		},
		{
			"bufferView":5,
			"componentType":5126,
			"count":18432,
			"type":"VEC3"
		},
		{
			"bufferView":6,
			"componentType":5126,
			"count":18432,
			"type":"VEC2"
		},
		{
			"bufferView":7,
			"componentType":5123,
			"count":27648,
			"type":"SCALAR"
		},
		{
			"bufferView":8,
			"componentType":5126,
			"count":8677,
			"max":[
				1.0596609115600586,
				1.389365792274475,
				0.959435760974884
			],
			"min":[
				-0.7888553142547607,
				-0.01757615990936756,
				-0.8902915716171265
			],
			"type":"VEC3"
		},
		{
			"bufferView":9,
			"componentType":5126,
			"count":8677,
			"type":"VEC3"
		},
		{
			"bufferView":10,
			"componentType":5126,
			"count":8677,
			"type":"VEC2"
		},
		{
			"bufferView":11,
			"componentType":5123,
			"count":50880,
			"type":"SCALAR"
		},
		{
			"bufferView":12,
			"componentType":5126,
			"count":18432,
			"max":[
				0.7303142547607422,
				0.5111638903617859,
				1.8632328510284424
			],
			"min":[
				-1.5412318706512451,
				-1.373189926147461,
				-4.534014701843262
			],
			"type":"VEC3"
		},
		{
			"bufferView":13,
			"componentType":5126,
			"count":18432,
			"type":"VEC3"
		},
		{
			"bufferView":14,
			"componentType":5126,
			"count":18432,
			"type":"VEC2"
		},
		{
			"bufferView":15,
			"componentType":5123,
			"count":27648,
			"type":"SCALAR"
		},
		{
			"bufferView":16,
			"componentType":5126,
			"count":1881,
			"max":[
				1.9468441009521484,
				1.7704951763153076,
				1.717917799949646
			],
			"min":[
				-0.6364656686782837,
				-0.5455575585365295,
				-4.676406383514404
			],
			"type":"VEC3"
		},
		{
			"bufferView":17,
			"componentType":5126,
			"count":1881,
			"type":"VEC3"
		},
		{
			"bufferView":18,
			"componentType":5126,
			"count":1881,
			"type":"VEC2"
		},
		{
			"bufferView":19,
			"componentType":5123,
			"count":2994,
			"type":"SCALAR"
		},
		{
			"bufferView":20,
			"componentType":5126,
			"count":2385,
			"max":[
				1.5499305725097656,
				1.3408159017562866,
				0.8852436542510986
			],
			"min":[
				-0.35883235931396484,
				-0.31598830223083496,
				-3.955686569213867
			],
			"type":"VEC3"
		},
		{
			"bufferView":21,
			"componentType":5126,
			"count":2385,
			"type":"VEC3"
		},
		{
			"bufferView":22,
			"componentType":5126,
			"count":2385,
			"type":"VEC2"
		},
		{
			"bufferView":23,
			"componentType":5123,
			"count":3840,
			"type":"SCALAR"
		}
	],
	"bufferViews":[
		{
			"buffer":0,
			"byteLength":8364,
			"byteOffset":0,
			"target":34962
		},
		{
			"buffer":0,
			"byteLength":8364,
			"byteOffset":8364,
			"target":34962
		},
		{
			"buffer":0,
			"byteLength":5576,
			"byteOffset":16728,
			"target":34962
		},
		{
			"buffer":0,
			"byteLength":7680,
			"byteOffset":22304,
			"target":34963
		},
		{
			"buffer":0,
			"byteLength":221184,
			"byteOffset":29984,
			"target":34962
		},
		{
			"buffer":0,
			"byteLength":221184,
			"byteOffset":251168,
			"target":34962
		},
		{
			"buffer":0,
			"byteLength":147456,
			"byteOffset":472352,
			"target":34962
		},
		{
			"buffer":0,
			"byteLength":55296,
			"byteOffset":619808,
			"target":34963
		},
		{
			"buffer":0,
			"byteLength":104124,
			"byteOffset":675104,
			"target":34962
		},
		{
			"buffer":0,
			"byteLength":104124,
			"byteOffset":779228,
			"target":34962
		},
		{
			"buffer":0,
			"byteLength":69416,
			"byteOffset":883352,
			"target":34962
		},
		{
			"buffer":0,
			"byteLength":101760,
			"byteOffset":952768,
			"target":34963
		},
		{
			"buffer":0,
			"byteLength":221184,
			"byteOffset":1054528,
			"target":34962
		},
		{
			"buffer":0,
			"byteLength":221184,
			"byteOffset":1275712,
			"target":34962
		},
		{
			"buffer":0,
			"byteLength":147456,
			"byteOffset":1496896,
			"target":34962
		},
		{
			"buffer":0,
			"byteLength":55296,
			"byteOffset":1644352,
			"target":34963
		},
		{
			"buffer":0,
			"byteLength":22572,
			"byteOffset":1699648,
			"target":34962
		},
		{
			"buffer":0,
			"byteLength":22572,
			"byteOffset":1722220,
			"target":34962
		},
		{
			"buffer":0,
			"byteLength":15048,
			"byteOffset":1744792,
			"target":34962
		},
		{
			"buffer":0,
			"byteLength":5988,
			"byteOffset":1759840,
			"target":34963
		},
		{
			"buffer":0,
			"byteLength":28620,
			"byteOffset":1765828,
			"target":34962
		},
		{
			"buffer":0,
			"byteLength":28620,
			"byteOffset":1794448,
			"target":34962
		},
		{
			"buffer":0,
			"byteLength":19080,
			"byteOffset":1823068,
			"target":34962
		},
		{
			"buffer":0,
			"byteLength":7680,
			"byteOffset":1842148,
			"target":34963
		}
	],
	"samplers":[
		{
			"magFilter":9729,
			"minFilter":9987
		}
	],
	"buffers":[
		{
			"byteLength":1849828,
			"uri":"twin-pots.bin"
		}
	]
}
